<svg width="53" height="51" viewBox="0 0 53 51" fill="none" xmlns="http://www.w3.org/2000/svg">
<path d="M48.7092 22.3094C53.4953 27.139 53.4953 34.9892 48.7092 39.8187C46.3103 42.2306 43.1679 43.4365 40.0198 43.4365C36.8716 43.4365 33.7293 42.2306 31.3362 39.8187L28.1241 36.5815L29.3091 35.0828L30.0583 35.838C31.0516 36.839 32.3759 37.3893 33.7815 37.3893C35.1872 37.3893 36.5115 36.839 37.5047 35.838C38.498 34.8311 39.0498 33.5023 39.0498 32.0798C39.0498 30.6572 38.498 29.3284 37.5047 28.3273L32.8115 23.5973L26.219 30.2416L19.6264 23.5973L14.939 28.3273C12.8829 30.3997 12.8829 33.7657 14.939 35.838C15.9323 36.839 17.2566 37.3893 18.6622 37.3893C20.0679 37.3893 21.3922 36.839 22.3854 35.838L23.0534 35.1648L24.3893 36.5054L21.1076 39.8187C16.3156 44.6424 8.52656 44.6424 3.73462 39.8187C-1.05151 34.9892 -1.05151 27.139 3.73462 22.3094L18.3718 7.55151L26.219 15.4661L34.0661 7.55737L48.7092 22.3094ZM47.3732 38.4723C51.4275 34.3862 51.4275 27.7419 47.3732 23.6559L34.0661 10.2444L26.219 18.1531L18.3718 10.2444L5.07055 23.6559C1.01628 27.7419 1.01628 34.3862 5.07055 38.4723C8.8344 42.2657 14.7822 42.535 18.8597 39.2919H18.6622C16.7513 39.2919 14.9565 38.5426 13.6031 37.1786C10.8151 34.3687 10.8151 29.7967 13.6031 26.9809L19.6264 20.9045L26.219 27.5488L32.8115 20.9103L38.8407 26.9809C40.1882 28.3449 40.9317 30.1538 40.9317 32.0798C40.9317 34.0057 40.1882 35.8205 38.8407 37.1786C37.4931 38.5367 35.6925 39.2919 33.7815 39.2919H33.5782C37.6557 42.535 43.6094 42.2657 47.3732 38.4723Z" fill="#D1A47D"/>
<path d="M36.6337 50.8478H15.8105L26.2192 40.3574L36.6337 50.8478Z" fill="#D1A47D"/>
<path d="M32.0563 6.02365L26.2189 11.9011L20.3872 6.02365L26.2189 0.14624L32.0563 6.02365ZM26.2189 9.21408L29.3844 6.02365L26.2189 2.83322L23.0533 6.02365L26.2189 9.21408Z" fill="#D1A47D"/>
</svg>
