<svg width="140" height="140" viewBox="0 0 140 140" fill="none" xmlns="http://www.w3.org/2000/svg">
<path d="M69.6652 0C31.2658 0 0 31.2658 0 69.6652V108.52H7.5888H15.1776H31.6453V124.153V132.576V139.33H69.6652C108.064 139.33 139.33 108.064 139.33 69.6652C139.33 31.2658 108.064 0 69.6652 0ZM69.6652 124.153H46.8229V108.52H69.5893C90.5343 108.52 107.533 91.5209 107.533 70.5758C107.533 49.6307 90.5343 32.6318 69.5893 32.6318C48.6442 32.6318 31.6453 49.6307 31.6453 70.5758V93.3422H15.1776V69.6652C15.1776 39.6135 39.6135 15.1776 69.6652 15.1776C99.7168 15.1776 124.153 39.6135 124.153 69.6652C124.153 99.7168 99.7168 124.153 69.6652 124.153ZM46.8229 93.3422V70.5758C46.8229 58.0543 57.0678 47.8094 69.5893 47.8094C82.1108 47.8094 92.3557 58.0543 92.3557 70.5758C92.3557 83.0973 82.1108 93.3422 69.5893 93.3422H46.8229Z" fill="white"/>
</svg>
